<svg xmlns="http://www.w3.org/2000/svg" version="1.1" xmlns:xlink="http://www.w3.org/1999/xlink" xmlns:svgjs="http://svgjs.dev/svgjs" viewBox="0 0 800 800" opacity="1"><defs><filter id="bbburst-blur-1" x="-100%" y="-100%" width="400%" height="400%"><feGaussianBlur in="SourceGraphic" stdDeviation="1"></feGaussianBlur></filter><filter id="bbburst-blur-2" x="-100%" y="-100%" width="400%" height="400%"><feGaussianBlur in="SourceGraphic" stdDeviation="2"></feGaussianBlur></filter><filter id="bbburst-blur-3" x="-100%" y="-100%" width="400%" height="400%"><feGaussianBlur in="SourceGraphic" stdDeviation="4"></feGaussianBlur></filter><filter id="bbburst-blur-4" x="-100%" y="-100%" width="400%" height="400%"><feGaussianBlur in="SourceGraphic" stdDeviation="12"></feGaussianBlur></filter><symbol id="bbburst-shape-5" viewBox="0 0 145 145"><circle cx="72.5" cy="72.5" r="72.5"></circle></symbol><symbol id="bbburst-shape-10" viewBox="0 0 145 145"><circle cx="72.5" cy="72.5" r="61.5" fill="none" stroke-width="22"></circle></symbol></defs><use xlink:href="#bbburst-shape-5" width="56.80599614802439" opacity="-0.04759275023878207" transform="matrix(1.5951356472062952,0.7197515314410617,-0.7197515314410617,1.5951356472062952,975.5763409831799,-592.198551875292)" fill="#FFFF" filter="url(#bbburst-blur-4)"></use><use xlink:href="#bbburst-shape-10" width="30.750841308849903" opacity="0.6480874317055699" transform="matrix(0.9757130382641586,0.21905265796452852,-0.21905265796452852,0.9757130382641586,532.0199084930528,-140.4511920715957)" fill="none" stroke="#FFFF" filter="url(#bbburst-blur-1)"></use><use xlink:href="#bbburst-shape-10" width="36.41436042345198" opacity="0.4667075727917046" transform="matrix(0.886331587256934,-0.4630510959177227,0.4630510959177227,0.886331587256934,115.95135835988637,279.1834511613723)" fill="none" stroke="#FFFF" filter="url(#bbburst-blur-2)"></use><use xlink:href="#bbburst-shape-5" width="35.575832332516505" opacity="0.6996074140991486" transform="matrix(0.9993295953562942,0.03661092521400466,-0.03661092521400466,0.9993295953562942,371.82474759843154,132.4534695946054)" fill="#FFFF" filter="url(#bbburst-blur-1)"></use><use xlink:href="#bbburst-shape-10" width="33.56399457914628" opacity="0.7406124245122638" transform="matrix(0.8404860742172998,0.5418331468697642,-0.5418331468697642,0.8404860742172998,659.4002143541467,156.70041055977748)" fill="none" stroke="#FFFF" filter="url(#bbburst-blur-1)"></use><use xlink:href="#bbburst-shape-10" width="40.391016499755224" opacity="0.7296814834736056" transform="matrix(0.9641502585434376,-0.2653568897741727,0.2653568897741727,0.9641502585434376,247.1179646626068,-98.84883544657225)" fill="none" stroke="#FFFF" filter="url(#bbburst-blur-1)"></use><use xlink:href="#bbburst-shape-10" width="43.11637856306682" opacity="-0.052597809460376066" transform="matrix(1.7171076792859337,-0.3376998930074976,0.3376998930074976,1.7171076792859337,-116.73689049586991,45.37738376434561)" fill="none" stroke="#FFFF" filter="url(#bbburst-blur-4)"></use><use xlink:href="#bbburst-shape-10" width="35.36951495783967" opacity="0.4634458019422115" transform="matrix(0.9916829378550794,0.12870489799195148,-0.12870489799195148,0.9916829378550794,650.8891659458146,-104.93386559946958)" fill="none" stroke="#FFFF" filter="url(#bbburst-blur-2)"></use><use xlink:href="#bbburst-shape-10" width="46.57373550608237" opacity="0.19782034647782876" transform="matrix(1.0551765543257532,-0.6701510570022483,0.6701510570022483,1.0551765543257532,10.163997803336997,-354.1121249355325)" fill="none" stroke="#FFFF" filter="url(#bbburst-blur-3)"></use><use xlink:href="#bbburst-shape-10" width="43.38125768875256" opacity="0.20648530511664587" transform="matrix(1.2284571310675785,0.23106942058440855,-0.23106942058440855,1.2284571310675785,715.3305083176587,159.01200802996033)" fill="none" stroke="#FFFF" filter="url(#bbburst-blur-3)"></use><use xlink:href="#bbburst-shape-10" width="43.812279175045845" opacity="0.22383038254200338" transform="matrix(1.249758923382355,0.02454859316085759,-0.02454859316085759,1.249758923382355,729.988933432511,-65.72673540291305)" fill="none" stroke="#FFFF" filter="url(#bbburst-blur-3)"></use><use xlink:href="#bbburst-shape-10" width="45.651340851625264" opacity="0.6271874143685696" transform="matrix(0.9884594210604526,0.1514858835563064,-0.1514858835563064,0.9884594210604526,323.3261273174695,123.58334939138672)" fill="none" stroke="#FFFF" filter="url(#bbburst-blur-1)"></use><use xlink:href="#bbburst-shape-10" width="48.01448836341937" opacity="0.11546589038266475" transform="matrix(1.2443223364693972,-0.11900387793404121,0.11900387793404121,1.2443223364693972,673.601786039626,-282.43982089435815)" fill="none" stroke="#FFFF" filter="url(#bbburst-blur-3)"></use><use xlink:href="#bbburst-shape-10" width="36.27689524060387" opacity="0.47118657027142596" transform="matrix(0.9989438798052392,0.045946980310525166,-0.045946980310525166,0.9989438798052392,399.4760204164691,-238.3757125726477)" fill="none" stroke="#FFFF" filter="url(#bbburst-blur-2)"></use><use xlink:href="#bbburst-shape-5" width="39.22412994116837" opacity="0.3840317548457389" transform="matrix(0.8789384778634017,-0.47693516554262017,0.47693516554262017,0.8789384778634017,433.7150487336648,193.42497303569047)" fill="#FFFF" filter="url(#bbburst-blur-2)"></use><use xlink:href="#bbburst-shape-5" width="42.249652837474294" opacity="0.4290502436043908" transform="matrix(0.8533830663619267,0.5212843197782908,-0.5212843197782908,0.8533830663619267,373.49260685292336,185.20466963213966)" fill="#FFFF" filter="url(#bbburst-blur-2)"></use><use xlink:href="#bbburst-shape-5" width="45.9419864140569" opacity="0.12656582550777218" transform="matrix(1.176992083923175,-0.42093899128280077,0.42093899128280077,1.176992083923175,375.688678868346,292.7215786186805)" fill="#FFFF" filter="url(#bbburst-blur-3)"></use><use xlink:href="#bbburst-shape-5" width="36.14825006090829" opacity="0.7198390463970531" transform="matrix(0.9819275600242895,0.18925714481822178,-0.18925714481822178,0.9819275600242895,583.754955332651,12.098642738709316)" fill="#FFFF" filter="url(#bbburst-blur-1)"></use><use xlink:href="#bbburst-shape-5" width="48.43994955199742" opacity="0.46964167650106514" transform="matrix(0.9967047175170033,-0.08111538743882521,0.08111538743882521,0.9967047175170033,110.34781004905486,-48.093125536791945)" fill="#FFFF" filter="url(#bbburst-blur-2)"></use><use xlink:href="#bbburst-shape-5" width="50.46894137839467" opacity="0.17529140227155982" transform="matrix(1.0113120815253724,0.7346753526291859,-0.7346753526291859,1.0113120815253724,365.7460443824377,191.7846307477597)" fill="#FFFF" filter="url(#bbburst-blur-3)"></use><use xlink:href="#bbburst-shape-5" width="48.09226812039276" opacity="0.2231096567063109" transform="matrix(0.9704329249737498,0.7878832008152558,-0.7878832008152558,0.9704329249737498,720.2772441113941,-355.55910285935937)" fill="#FFFF" filter="url(#bbburst-blur-3)"></use><use xlink:href="#bbburst-shape-5" width="44.264338369263385" opacity="0.4793361382685457" transform="matrix(0.9914101398720736,0.1307896576906428,-0.1307896576906428,0.9914101398720736,579.7423922427066,-179.97167448585714)" fill="#FFFF" filter="url(#bbburst-blur-2)"></use><use xlink:href="#bbburst-shape-10" width="30.706601517010142" opacity="0.6725348146432695" transform="matrix(0.9460838058651578,-0.3239219539946286,0.3239219539946286,0.9460838058651578,384.10221756508923,-46.12680816485931)" fill="none" stroke="#FFFF" filter="url(#bbburst-blur-1)"></use><use xlink:href="#bbburst-shape-5" width="48.27819383051558" opacity="0.12792345888651657" transform="matrix(1.1769079921177266,-0.42117404726481117,0.42117404726481117,1.1769079921177266,552.7031100797859,117.72086261454518)" fill="#FFFF" filter="url(#bbburst-blur-3)"></use><use xlink:href="#bbburst-shape-10" width="57.994344138428886" opacity="0.20704691012404985" transform="matrix(1.0861777948557056,0.6186418980010944,-0.6186418980010944,1.0861777948557056,269.07657856731225,-136.06560561610866)" fill="none" stroke="#FFFF" filter="url(#bbburst-blur-3)"></use><use xlink:href="#bbburst-shape-5" width="39.67576112041577" opacity="0.5630390664053238" transform="matrix(0.7359937072384054,-0.6769883772307087,0.6769883772307087,0.7359937072384054,-77.50622872955586,160.9603178685071)" fill="#FFFF" filter="url(#bbburst-blur-1)"></use><use xlink:href="#bbburst-shape-5" width="51.541783045741425" opacity="0.2541356542849512" transform="matrix(1.1237254603308025,0.5474861548973877,-0.5474861548973877,1.1237254603308025,626.4208180579874,270.06148624470967)" fill="#FFFF" filter="url(#bbburst-blur-3)"></use><use xlink:href="#bbburst-shape-10" width="47.6825135592788" opacity="0.08136849204583174" transform="matrix(1.4023095429581378,1.0469135330716375,-1.0469135330716375,1.4023095429581378,564.5971808359851,163.6337707842548)" fill="none" stroke="#FFFF" filter="url(#bbburst-blur-4)"></use><use xlink:href="#bbburst-shape-5" width="44.58694848469568" opacity="0.2386601295140861" transform="matrix(1.2485651620431577,-0.05987517124938995,0.05987517124938995,1.2485651620431577,595.8763870907734,-334.82033933912044)" fill="#FFFF" filter="url(#bbburst-blur-3)"></use><use xlink:href="#bbburst-shape-10" width="35.91569697163395" opacity="0.3479285382309162" transform="matrix(0.7688584768681302,0.6394189882604511,-0.6394189882604511,0.7688584768681302,754.1816433533081,-190.15114999353347)" fill="none" stroke="#FFFF" filter="url(#bbburst-blur-2)"></use><use xlink:href="#bbburst-shape-5" width="32.01166503449479" opacity="0.8704923793439444" transform="matrix(0.8533540306021674,-0.5213318506048091,0.5213318506048091,0.8533540306021674,146.52109746319616,116.17049362316897)" fill="#FFFF"></use><use xlink:href="#bbburst-shape-10" width="36.05606467526082" opacity="0.7568252902051014" transform="matrix(0.8197811100580111,0.5726769871332835,-0.5726769871332835,0.8197811100580111,507.57825856086606,85.98840741857617)" fill="none" stroke="#FFFF" filter="url(#bbburst-blur-1)"></use><use xlink:href="#bbburst-shape-10" width="38.12781003018825" opacity="0.30467427282874504" transform="matrix(1.0516830040088068,0.675620351291324,-0.675620351291324,1.0516830040088068,398.1393137842729,-218.94518731356806)" fill="none" stroke="#FFFF" filter="url(#bbburst-blur-3)"></use><use xlink:href="#bbburst-shape-5" width="48.72733382753207" opacity="-0.07014339620443333" transform="matrix(1.7399034403137887,0.18771259516676586,-0.18771259516676586,1.7399034403137887,91.54156127225747,-640.4155592315637)" fill="#FFFF" filter="url(#bbburst-blur-4)"></use><use xlink:href="#bbburst-shape-10" width="38.437306598749934" opacity="0.3657789454034087" transform="matrix(0.747888607436281,-0.6638242469713052,0.6638242469713052,0.747888607436281,254.02060308833376,365.62875029301284)" fill="none" stroke="#FFFF" filter="url(#bbburst-blur-2)"></use><use xlink:href="#bbburst-shape-5" width="36.484280492415515" opacity="0.5639280392604009" transform="matrix(0.9868027908280119,0.1619266871582535,-0.1619266871582535,0.9868027908280119,362.7846642485296,-175.02701223325474)" fill="#FFFF" filter="url(#bbburst-blur-1)"></use><use xlink:href="#bbburst-shape-5" width="33.44069632164103" opacity="0.8763231370079383" transform="matrix(0.8268960628357995,0.5623547823808859,-0.5623547823808859,0.8268960628357995,567.8486656904362,24.83340907358445)" fill="#FFFF"></use><use xlink:href="#bbburst-shape-10" width="37.44673465117626" opacity="0.5133688635764828" transform="matrix(0.9994378438931837,-0.03352605246885058,0.03352605246885058,0.9994378438931837,386.9244543989979,219.00661605763588)" fill="none" stroke="#FFFF" filter="url(#bbburst-blur-2)"></use><use xlink:href="#bbburst-shape-5" width="40.265027136313904" opacity="0.26202260952134493" transform="matrix(1.000620489876305,0.7491719664000407,-0.7491719664000407,1.000620489876305,1001.804199809497,-95.44951817626065)" fill="#FFFF" filter="url(#bbburst-blur-3)"></use><use xlink:href="#bbburst-shape-5" width="39.498909466474245" opacity="0.6052627325483253" transform="matrix(0.9136844514642485,0.40642431417482316,-0.40642431417482316,0.9136844514642485,699.6749914912745,112.99530490432483)" fill="#FFFF" filter="url(#bbburst-blur-1)"></use><use xlink:href="#bbburst-shape-10" width="51.06594246206756" opacity="0.3096405725579833" transform="matrix(1.0787954630356875,0.6314272317010223,-0.6314272317010223,1.0787954630356875,447.1127381059646,207.03110362445045)" fill="none" stroke="#FFFF" filter="url(#bbburst-blur-3)"></use><use xlink:href="#bbburst-shape-5" width="44.71158077139967" opacity="0.210470425675798" transform="matrix(0.9167513328477628,0.8497452522502557,-0.8497452522502557,0.9167513328477628,638.6956544912831,360.30279414165096)" fill="#FFFF" filter="url(#bbburst-blur-3)"></use><use xlink:href="#bbburst-shape-10" width="43.05849973029244" opacity="0.5088389198806187" transform="matrix(0.9346414096472049,-0.3555916694365683,0.3555916694365683,0.9346414096472049,63.66715428395571,-102.523975218256)" fill="none" stroke="#FFFF" filter="url(#bbburst-blur-2)"></use><use xlink:href="#bbburst-shape-5" width="36.35180698134549" opacity="0.89226541031093" transform="matrix(0.9872299586744698,-0.15930162803814865,0.15930162803814865,0.9872299586744698,359.81876683782195,33.09347405410483)" fill="#FFFF"></use><use xlink:href="#bbburst-shape-10" width="42.7406848372553" opacity="0.09132116801778578" transform="matrix(1.6873790400167432,-0.46395255717818196,0.46395255717818196,1.6873790400167432,-167.9470284909059,-482.4666736192336)" fill="none" stroke="#FFFF" filter="url(#bbburst-blur-4)"></use><use xlink:href="#bbburst-shape-5" width="48.98113356093305" opacity="-0.05117001249581854" transform="matrix(1.6356292795144445,0.6222675148158218,-0.6222675148158218,1.6356292795144445,941.8669208301886,66.4453704259355)" fill="#FFFF" filter="url(#bbburst-blur-4)"></use><use xlink:href="#bbburst-shape-10" width="38.04919876511511" opacity="0.6896358142860786" transform="matrix(0.9632191644910556,0.2687170280372137,-0.2687170280372137,0.9632191644910556,365.374832357175,-55.074078679603076)" fill="none" stroke="#FFFF" filter="url(#bbburst-blur-1)"></use><use xlink:href="#bbburst-shape-5" width="38.4521434176623" opacity="0.11753382084928143" transform="matrix(0.9240111179829246,-0.8418452671625266,0.8418452671625266,0.9240111179829246,230.15808497989957,-304.98187274357394)" fill="#FFFF" filter="url(#bbburst-blur-3)"></use><use xlink:href="#bbburst-shape-10" width="36.95152066773424" opacity="0.8565967856982701" transform="matrix(0.9644107471031457,-0.26440860589616305,0.26440860589616305,0.9644107471031457,314.8610864518582,-32.71025556660862)" fill="none" stroke="#FFFF"></use><use xlink:href="#bbburst-shape-10" width="35.405009807961044" opacity="0.29425204352506085" transform="matrix(1.2189964344549746,0.27667253710127954,-0.27667253710127954,1.2189964344549746,172.67003270068108,-65.29691888425879)" fill="none" stroke="#FFFF" filter="url(#bbburst-blur-3)"></use><use xlink:href="#bbburst-shape-10" width="47.74615913085869" opacity="0.1073155086540808" transform="matrix(1.7496635215993204,0.03431561138410374,-0.03431561138410374,1.7496635215993204,145.1841333115118,-632.2622163927574)" fill="none" stroke="#FFFF" filter="url(#bbburst-blur-4)"></use><use xlink:href="#bbburst-shape-5" width="47.54803890657751" opacity="0.4777251896950111" transform="matrix(0.9989688364949009,0.04540114218854002,-0.04540114218854002,0.9989688364949009,629.0174019593386,13.331161661985846)" fill="#FFFF" filter="url(#bbburst-blur-2)"></use><use xlink:href="#bbburst-shape-5" width="29.747973014039978" opacity="0.54734929785199" transform="matrix(0.9824294536223305,-0.18663431800001118,0.18663431800001118,0.9824294536223305,426.75692858605885,177.22391318189779)" fill="#FFFF" filter="url(#bbburst-blur-2)"></use><use xlink:href="#bbburst-shape-5" width="39.24409955926468" opacity="0.359155796081288" transform="matrix(0.7234014024299686,-0.690427701473771,0.690427701473771,0.7234014024299686,-31.61894889065644,-127.22990158449986)" fill="#FFFF" filter="url(#bbburst-blur-2)"></use><use xlink:href="#bbburst-shape-5" width="35.16127672849033" opacity="0.16866307240040557" transform="matrix(1.2479081033760457,0.07228668984259899,-0.07228668984259899,1.2479081033760457,53.3769599077214,21.713337490863807)" fill="#FFFF" filter="url(#bbburst-blur-3)"></use></svg>