<svg xmlns="http://www.w3.org/2000/svg" version="1.1" xmlns:xlink="http://www.w3.org/1999/xlink" xmlns:svgjs="http://svgjs.dev/svgjs" viewBox="0 0 800 800"><defs><linearGradient x1="50%" y1="0%" x2="50%" y2="100%" id="ccchaos-grad"><stop stop-color="ccf0eb" stop-opacity="1" offset="0%"></stop><stop stop-color="016d5e" stop-opacity="1" offset="100%"></stop></linearGradient></defs><g stroke-width="1" stroke="url(#ccchaos-grad)" fill="none" stroke-linecap="round"><path d="M394.59 5.4C401.14 5.47 407.58 5.88 413.93 6.62 420.27 7.52 426.51 8.73 432.64 10.23 438.76 11.86 444.77 13.75 450.67 15.88 456.56 18.09 462.33 20.5 467.99 23.09 473.64 25.71 479.16 28.47 484.57 31.35 489.97 34.19 495.25 37.13 500.4 40.13 508.08 44.52 522.84 53.3 529.95 57.61 536.98 61.71 550.59 69.66 557.22 73.52 563.84 77.17 576.91 84.38 583.42 87.99 590.04 91.52 603.46 98.87 610.33 102.76 617.44 106.73 632.22 115.37 639.92 120.08 645.25 123.31 650.67 126.72 656.19 130.29 661.88 133.92 667.66 137.72 673.54 141.71 679.56 145.76 685.67 150 691.85 154.4 698.16 158.89 704.51 163.54 710.88 168.36 717.34 173.26 723.79 178.32 730.2 183.52 736.62 188.8 742.97 194.22 749.19 199.77 755.36 205.39 761.35 211.13 767.14 216.98 772.77 222.89 778.14 228.9 783.2 235 788.02 241.15 792.48 247.38 796.54 253.68 800.29 260.02 803.59 266.42 806.4 272.87 808.86 279.35 810.8 285.87 812.21 292.43 813.23 299.01 813.7 305.61 813.62 312.23 813.17 318.87 812.18 325.51 810.67 332.16 808.83 338.82 806.51 345.48 803.74 352.12 800.73 358.77 797.33 365.41 793.59 372.02 789.73 378.63 785.61 385.21 781.28 391.76 776.99 398.3 772.62 404.73 768.25 411.04 764.04 417.34 759.91 423.52 755.89 429.57 752.16 435.62 748.6 441.53 745.24 447.32 742.24 453.11 739.48 458.76 736.96 464.28 733.9 472.5 729.62 488.3 728.33 495.9 727.75 503.41 727.76 517.92 728.19 524.98 728.94 532.02 730.47 545.92 731.07 552.84 731.55 559.9 731.45 574.28 730.75 581.68 729.6 589.38 725.58 605.51 722.66 614.01 720.44 619.91 717.89 625.95 715.02 632.12 711.97 638.49 708.61 644.99 704.95 651.63 701.12 658.43 697 665.35 692.6 672.36 688.06 679.5 683.25 686.69 678.21 693.92 673.05 701.19 667.66 708.43 662.08 715.61 656.4 722.75 650.54 729.74 644.53 736.55 638.44 743.21 632.21 749.59 625.86 755.65 619.47 761.44 612.97 766.83 606.38 771.77 599.77 776.34 593.08 780.38 586.34 783.87 579.59 786.9 572.78 789.33 565.95 791.14 559.11 792.48 552.25 793.18 545.37 793.26 538.5 792.89 531.62 791.93 524.73 790.4 517.86 788.54 510.98 786.19 504.12 783.41 497.26 780.45 490.41 777.19 483.58 773.68 476.76 770.2 469.95 766.62 463.15 763.03 456.37 759.69 449.6 756.48 442.85 753.48 436.11 750.93 429.38 748.71 422.67 746.87 415.97 745.64 409.28 744.87 402.61 744.6 395.94 744.98 389.37 745.86 382.89 747.2 376.4 749.13 370.01 751.44 363.71 754.07 357.4 757.15 351.18 760.42 345.05 763.81 338.91 767.44 332.85 771.04 326.87 774.53 320.88 778.04 314.97 781.29 309.15 784.22 303.3 786.96 297.53 789.26 291.84 791.07 283.31 792.97 266.56 793.14 258.35 791.32 252.86 789.42 247.45 786.89 242.09 783.77 236.71 780.19 231.38 776.07 226.12 771.42 220.82 766.41 215.58 760.95 210.41 755.1 205.19 748.98 200.03 742.55 194.93 735.85 189.79 729.01 184.71 721.99 179.69 714.84 174.63 707.65 169.63 700.4 164.7 693.14 159.73 685.92 154.83 678.75 149.99 671.64 145.13 664.65 140.34 657.77 135.62 651.01 130.89 644.41 126.23 637.95 121.67 631.63 117.09 625.51 112.6 619.52 108.22 613.68 103.83 608.02 99.55 602.49 95.38 597.08 91.22 591.85 87.18 586.71 83.27 581.65 79.37 576.75 75.61 571.9 71.98 567.09 66.66 560.08 56.8 546.21 52.28 539.28 47.98 532.39 40.23 518.36 36.79 511.16 33.57 503.89 28 488.82 25.65 480.99 23.49 473.04 20.02 456.48 18.7 447.87 17.89 442.08 17.24 436.16 16.76 430.11 16.28 424.06 15.96 417.88 15.81 411.57 15.66 405.26 15.68 398.83 15.87 392.28 16.07 385.73 16.42 379.14 16.95 372.52 17.47 365.91 18.15 359.27 18.99 352.61 19.83 345.96 20.82 339.29 21.97 332.62 23.11 325.97 24.4 319.31 25.83 312.66 27.25 306.03 28.81 299.42 30.5 292.83 32.18 286.26 33.99 279.72 35.92 273.23 37.82 266.77 39.85 260.35 41.99 254 44.1 247.68 46.33 241.43 48.66 235.27 50.96 229.15 53.36 223.12 55.87 217.19 58.34 211.31 60.91 205.55 63.59 199.91 66.22 194.33 68.96 188.89 71.8 183.59 76.07 175.82 85.08 161.17 89.84 154.32 94.69 147.76 104.94 135.64 110.36 130.07 115.9 124.78 127.63 115.1 133.82 110.68 140.17 106.44 153.55 98.58 160.57 94.91 167.76 91.25 182.8 84.16 190.62 80.66 195.92 78.23 201.32 75.81 206.82 73.41 212.36 70.86 218 68.32 223.72 65.77 229.48 63.08 235.33 60.38 241.26 57.67 247.22 54.82 253.25 51.97 259.35 49.13 265.48 46.16 271.67 43.22 277.91 40.32 284.18 37.34 290.5 34.42 296.87 31.58 303.25 28.71 309.68 25.95 316.13 23.34 322.6 20.74 329.1 18.32 335.61 16.1 342.14 13.95 348.69 12.04 355.24 10.4 361.8 8.87 368.36 7.64 374.92 6.71 381.48 5.94 388.04 5.5 394.58 5.4" stroke-dasharray="9 3" transform="rotate(0, 400, 400)" opacity="0.05"></path><path d="M381.72 51.6C392.81 51.88 403.66 53.35 414.25 55.9 424.83 58.95 435.15 62.91 445.19 67.64 455.24 72.55 465.04 78.01 474.6 83.88 484.21 89.58 493.61 95.5 502.84 101.54 512.18 107.17 521.41 112.83 530.56 118.46 539.91 123.62 549.28 128.76 558.67 133.92 568.37 138.65 578.19 143.49 588.14 148.47 598.45 153.18 608.94 158.15 619.59 163.44 630.58 168.62 641.69 174.22 652.87 180.27 664.24 186.35 675.54 192.93 686.61 200.02 697.61 207.23 708.16 214.95 718.06 223.17 727.51 231.53 736.02 240.36 743.41 249.61 749.96 258.98 755.14 268.74 758.79 278.82 761.37 288.99 762.34 299.43 761.64 310.1 759.94 320.81 756.72 331.7 752.08 342.72 746.85 353.75 740.56 364.88 733.45 376.06 726.42 387.24 719.21 398.21 712.09 408.94 705.7 419.67 699.72 430.2 694.29 440.52 689.93 450.88 686.19 461.08 683.07 471.16 680.99 481.35 679.39 491.49 678.15 501.61 677.67 511.96 677.27 522.39 676.81 532.95 676.7 543.83 676.22 554.92 675.26 566.25 674.28 577.94 672.58 589.89 670.11 602.07 667.35 614.54 663.71 627.15 659.16 639.77 654.23 652.43 648.39 664.88 641.7 676.9 634.64 688.52 626.77 699.37 618.2 709.18 609.33 718.09 599.84 725.61 589.83 731.52 579.62 736.17 568.97 739.04 557.98 740.05 546.87 739.85 535.5 737.96 523.91 734.54 512.29 730.49 500.5 725.46 488.61 719.79 476.72 714.51 464.75 709.35 452.73 704.67 440.72 701.43 428.68 699.27 416.62 698.4 404.56 699.46 392.77 701.79 381.24 705.18 369.7 709.98 358.41 715.24 347.37 720.58 336.3 726.27 325.45 731.28 314.85 735.28 304.18 738.62 293.72 740.41 283.48 740.48 273.15 739.33 263.03 736.32 253.12 731.52 243.11 725.46 233.3 717.81 223.71 708.78 214.03 698.86 204.57 687.93 195.36 676.24 186.09 664.18 177.08 651.7 168.38 639.04 159.66 626.42 151.28 613.84 143.28 601.4 135.32 589.27 127.78 577.37 120.7 565.74 113.73 554.48 107.25 543.45 101.31 532.64 95.52 522.14 90.29 511.77 85.66 501.48 81.19 491.41 77.31 481.32 74.06 471.17 70.96 461.13 68.47 450.96 66.61 440.62 64.87 430.33 63.73 419.82 63.22 409.1 62.78 398.38 62.94 387.42 63.71 376.23 64.5 365.05 65.86 353.91 67.74 342.86 69.58 331.84 71.93 320.93 74.74 310.19 77.45 299.5 80.6 289.03 84.14 278.83 87.56 268.72 91.35 258.93 95.49 249.52 99.48 240.24 103.81 231.37 108.47 222.98 112.97 214.73 117.82 206.97 122.99 199.74 128.04 192.63 133.45 186.02 139.21 179.93 144.9 173.87 150.97 168.27 157.42 163.1 163.86 157.82 170.71 152.87 177.95 148.19 185.23 143.24 192.92 138.45 201 133.76 209.15 128.66 217.69 123.56 226.59 118.47 235.57 112.89 244.9 107.29 254.54 101.7 264.25 95.71 274.26 89.82 284.5 84.14 294.8 78.29 305.32 72.83 316.01 67.91 326.74 63.15 337.61 59.16 348.58 56.07 359.56 53.47 370.62 51.95 381.71 51.6" stroke-dasharray="8 6" transform="rotate(14, 400, 400)" opacity="0.19"></path><path d="M378.95 97.8C388.4 98.03 397.76 99.28 407.04 101.45 416.32 104.07 425.53 107.5 434.65 111.65 443.8 116.04 452.89 120.98 461.92 126.37 471 131.75 480.07 137.43 489.1 143.32 498.24 149 507.39 154.79 516.56 160.64 525.87 166.15 535.23 171.68 544.63 177.22 554.2 182.39 563.82 187.6 573.47 192.84 583.27 197.76 593.08 202.78 602.84 207.92 612.68 212.83 622.41 217.94 631.94 223.28 641.4 228.47 650.55 233.95 659.27 239.74 667.73 245.46 675.61 251.53 682.77 257.95 689.46 264.36 695.28 271.14 700.1 278.28 704.29 285.43 707.38 292.95 709.28 300.82 710.48 308.69 710.48 316.9 709.29 325.43 707.47 333.96 704.57 342.79 700.65 351.9 696.38 361.01 691.32 370.39 685.61 380.04 679.95 389.68 674.07 399.37 668.11 409.07 662.61 418.79 657.25 428.56 652.14 438.36 647.7 448.21 643.59 458.13 639.83 468.11 636.79 478.18 634.05 488.34 631.58 498.6 629.72 508.97 627.98 519.46 626.3 530.03 625.03 540.72 623.64 551.48 622.05 562.27 620.65 573.11 618.9 583.91 616.73 594.58 614.57 605.16 611.88 615.48 608.63 625.41 605.26 635.03 601.27 644.07 596.67 652.39 591.9 660.15 586.51 666.99 580.52 672.76 574.36 677.77 567.63 681.59 560.38 684.13 552.98 685.86 545.11 686.33 536.81 685.57 528.41 684.19 519.62 681.78 510.51 678.49 501.34 675.05 491.87 671.1 482.17 666.87 472.43 663.13 462.47 659.55 452.34 656.35 442.19 654.22 431.88 652.8 421.43 652.2 410.99 652.95 400.65 654.51 390.44 656.77 380.23 660.09 370.15 663.76 360.22 667.57 350.27 671.85 340.46 675.82 330.79 679.25 321.11 682.52 311.57 684.87 302.18 686.18 292.77 686.86 283.52 686.29 274.43 684.46 265.32 681.8 256.39 677.87 247.66 672.75 238.91 666.87 230.38 659.93 222.09 652.08 213.81 643.67 205.8 634.55 198.08 624.87 190.41 614.9 183.06 604.54 176.07 593.93 169.17 583.25 162.66 572.44 156.58 561.6 150.62 550.82 145.12 540.07 140.1 529.4 135.23 518.85 130.86 508.39 127.02 498.05 123.34 487.82 120.2 477.68 117.62 467.64 115.18 457.69 113.29 447.79 111.97 437.97 110.77 428.19 110.11 418.44 110.02 408.73 109.99 399.04 110.5 389.36 111.55 379.73 112.61 370.09 114.16 360.7 116.14 351.59 118.08 342.47 120.43 333.64 123.16 325.1 125.78 316.56 128.76 308.34 132.06 300.45 135.22 292.58 138.69 285.05 142.44 277.89 146.04 270.74 149.91 263.95 154.05 257.54 158.03 251.11 162.28 245.04 166.79 239.33 171.17 233.55 175.82 228.08 180.74 222.91 185.56 217.6 190.67 212.52 196.07 207.64 201.4 202.54 207.04 197.56 212.99 192.68 218.9 187.49 225.13 182.34 231.67 177.22 238.21 171.73 245.06 166.25 252.21 160.79 259.38 154.99 266.85 149.24 274.59 143.59 282.35 137.73 290.39 132.07 298.67 126.69 306.97 121.3 315.5 116.35 324.25 111.94 333 107.76 341.95 104.29 351.08 101.62 360.21 99.39 369.5 98.1 378.94 97.8" stroke-dasharray="0 8" transform="rotate(28, 400, 400)" opacity="0.32"></path><path d="M387.82 144C395.86 144.18 403.94 145.17 412.02 146.93 420.11 149.05 428.23 151.86 436.35 155.29 444.5 158.96 452.68 163.16 460.86 167.81 469.08 172.54 477.32 177.62 485.58 182.98 493.88 188.29 502.2 193.8 510.51 199.45 518.88 204.94 527.24 210.53 535.56 216.18 543.91 221.62 552.22 227.1 560.42 232.62 568.62 237.91 576.68 243.24 584.54 248.63 592.33 253.81 599.87 259.07 607.08 264.43 614.13 269.62 620.77 274.94 626.93 280.42 632.82 285.76 638.14 291.3 642.82 297.03 647.14 302.68 650.75 308.56 653.58 314.69 655.98 320.75 657.57 327.08 658.32 333.69 658.64 340.25 658.12 347.1 656.78 354.23 655.09 361.34 652.64 368.75 649.48 376.45 646.14 384.14 642.21 392.13 637.77 400.42 633.37 408.71 628.72 417.11 623.92 425.6 619.37 434.1 614.8 442.7 610.28 451.38 606.15 460.06 602.12 468.83 598.23 477.64 594.79 486.46 591.49 495.31 588.31 504.17 585.56 513.01 582.88 521.83 580.26 530.57 577.98 539.25 575.68 547.8 573.3 556.15 571.16 564.38 568.86 572.33 566.37 579.92 564.01 587.28 561.38 594.2 558.44 600.58 553.92 609.32 543.01 622.74 536.54 627.15 529.58 630.04 513.52 631.05 504.48 629.37 498.26 627.81 491.69 625.7 484.78 623.11 477.83 620.64 470.56 617.93 463 615.11 455.41 612.74 447.55 610.5 439.44 608.49 431.32 607.23 422.96 606.38 414.4 606 405.83 606.5 397.26 607.47 388.72 608.83 380.18 610.94 371.68 613.26 363.24 615.7 354.8 618.58 346.43 621.33 338.14 623.83 329.87 626.42 321.68 628.54 313.61 630.07 305.56 631.4 297.62 631.99 289.83 631.8 282.06 631.22 274.45 629.78 267.02 627.5 259.64 624.75 252.44 621.18 245.48 616.83 238.57 612.05 231.91 606.57 225.52 600.46 219.21 594.01 213.2 587.03 207.51 579.61 201.92 571.96 196.68 563.97 191.82 555.71 187.08 547.32 182.72 538.74 178.79 530.04 174.99 521.28 171.61 512.45 168.69 503.6 165.9 494.74 163.56 485.88 161.7 477.05 159.95 468.25 158.67 459.49 157.87 450.8 157.17 442.14 156.93 433.54 157.16 425.05 157.45 416.56 158.19 408.17 159.39 399.89 160.6 391.6 162.2 383.62 164.18 375.94 166.11 368.24 168.39 360.84 170.97 353.74 173.47 346.61 176.27 339.77 179.32 333.22 182.27 326.63 185.47 320.31 188.9 314.26 192.2 308.15 195.73 302.28 199.47 296.66 203.08 290.94 206.9 285.44 210.93 280.12 214.84 274.68 218.95 269.39 223.28 264.24 227.49 258.92 231.93 253.7 236.58 248.56 241.14 243.22 245.93 237.92 250.95 232.68 255.9 227.21 261.09 221.77 266.51 216.38 271.89 210.76 277.51 205.21 283.38 199.75 289.2 194.12 295.28 188.64 301.59 183.34 307.88 177.99 314.41 172.91 321.17 168.16 327.92 163.5 334.89 159.28 342.09 155.58 349.28 152.11 356.69 149.26 364.32 147.09 371.93 145.28 379.77 144.24 387.81 144" stroke-dasharray="6 4" transform="rotate(42, 400, 400)" opacity="0.46"></path><path d="M403.42 190.2C410.1 190.32 416.82 191.06 423.56 192.38 430.3 193.97 437.08 196.1 443.85 198.74 450.64 201.57 457.44 204.86 464.23 208.54 471.03 212.35 477.82 216.5 484.58 220.95 491.34 225.44 498.05 230.17 504.7 235.11 511.34 240.02 517.89 245.09 524.33 250.29 530.73 255.41 537 260.64 543.08 265.96 549.11 271.16 554.92 276.45 560.48 281.79 565.93 287.01 571.1 292.31 575.93 297.66 580.61 302.9 584.91 308.22 588.79 313.6 592.49 318.9 595.72 324.29 598.46 329.77 601.98 337.94 605.96 354.81 606.38 363.55 606.24 369.38 605.56 375.38 604.33 381.54 602.92 387.68 601.01 393.99 598.61 400.48 596.13 406.96 593.23 413.61 589.93 420.44 586.66 427.27 583.15 434.12 579.47 440.96 575.92 447.8 572.25 454.63 568.51 461.42 564.98 468.21 561.41 474.95 557.84 481.6 554.51 488.23 551.18 494.76 547.88 501.14 544.82 507.48 541.76 513.64 538.71 519.58 535.88 525.44 533.02 531.04 530.13 536.35 526.02 543.94 517.57 556.99 513.1 562.3 503.67 569.93 487.59 575.54 481.41 575.44 474.98 574.73 460.81 571.45 453.08 569.15 447.82 567.72 442.32 566.19 436.58 564.59 430.83 563.35 424.84 562.15 418.64 561.06 412.43 560.45 406.01 560.02 399.39 559.8 392.78 560.11 386.13 560.63 379.47 561.33 372.82 562.5 366.17 563.76 359.55 565.07 352.94 566.72 346.36 568.31 339.85 569.77 333.35 571.41 326.93 572.81 320.59 573.92 314.28 575.05 308.08 575.78 301.99 576.1 293 576.17 275.85 573.55 267.77 570.79 259.99 567.2 245.68 557.22 239.22 550.95 235.09 546.46 231.25 541.58 227.71 536.36 224.26 531.02 221.13 525.38 218.34 519.48 215.64 513.5 213.28 507.31 211.28 500.95 209.36 494.54 207.81 488 206.63 481.35 205.53 474.68 204.79 467.93 204.44 461.13 204.14 454.33 204.22 447.49 204.67 440.65 205.16 433.81 206.01 426.96 207.23 420.14 208.45 413.31 210 406.66 211.83 400.19 213.65 393.71 215.74 387.41 218.08 381.28 220.37 375.14 222.9 369.15 225.64 363.33 228.32 357.48 231.2 351.77 234.28 346.2 237.27 340.58 240.45 335.08 243.8 329.7 247.06 324.24 250.5 318.88 254.1 313.62 257.6 308.26 261.28 302.98 265.12 297.77 268.87 292.45 272.78 287.19 276.86 281.99 280.86 276.68 285.04 271.43 289.37 266.25 293.64 260.96 298.09 255.76 302.71 250.65 307.27 245.47 312.02 240.41 316.94 235.51 321.82 230.58 326.88 225.85 332.13 221.35 337.34 216.9 342.74 212.73 348.33 208.9 353.89 205.19 359.65 201.88 365.59 199.01 371.51 196.34 377.63 194.16 383.94 192.53 390.24 191.16 396.73 190.37 403.41 190.2" stroke-dasharray="5 2" transform="rotate(56, 400, 400)" opacity="0.59"></path><path d="M417.13 236.4C427.47 236.72 437.79 238.72 447.95 242.2 458.12 246.25 468.11 251.6 477.78 258.01 487.4 264.73 496.62 272.3 505.28 280.52 513.78 288.8 521.59 297.58 528.53 306.7 535.17 315.74 540.81 325.09 545.26 334.61 549.3 344.03 552.07 353.67 553.44 363.45 554.39 373.15 553.96 383.07 552.12 393.12 550.01 403.14 546.65 413.35 542.09 423.64 537.59 433.94 532.36 443.82 526.63 453.17 521.25 462.48 515.52 471.18 509.57 479.13 504.08 486.94 498.37 493.88 492.49 499.8 487.02 505.48 481.28 510.05 475.26 513.43 469.52 516.56 463.37 518.52 456.81 519.31 450.38 520.05 443.42 519.82 435.94 518.76 428.51 518.06 420.5 516.87 411.95 515.38 403.4 514.73 394.3 514.11 384.72 513.6 375.15 514.24 365.56 514.98 356.12 515.73 346.71 517.32 337.48 518.59 328.58 519.35 319.76 520.44 311.33 520.69 303.42 519.95 295.64 519.15 288.45 517.16 281.99 514 275.71 510.58 270.2 505.96 265.6 500.24 261.21 494.27 257.74 487.28 255.31 479.44 253.07 471.45 251.86 462.72 251.75 453.39 251.77 444.01 252.86 434.12 255.06 423.82 257.29 413.53 260.45 403.33 264.41 393.31 268.27 383.28 272.87 373.39 278.1 363.71 283.15 353.95 288.82 344.35 294.99 334.96 300.97 325.46 307.48 316.15 314.45 307.13 321.24 298.02 328.54 289.25 336.28 280.97 343.89 272.75 352 265.15 360.56 258.41 369.04 251.95 378.02 246.55 387.46 242.43 396.87 238.88 406.78 236.81 417.13 236.4" stroke-dasharray="3 8" transform="rotate(70, 400, 400)" opacity="0.73"></path><path d="M421.36 282.6C428.32 282.75 435.09 283.89 441.6 285.91 448.09 288.25 454.3 291.4 460.14 295.26 465.94 299.34 471.34 304.06 476.25 309.27 481.07 314.63 485.37 320.42 489.05 326.54 492.61 332.73 495.51 339.2 497.69 345.84 499.74 352.51 501.04 359.34 501.55 366.22 501.92 373.11 501.53 380.05 500.33 386.95 499.05 393.85 497.03 400.7 494.25 407.4 491.49 414.1 488.19 420.32 484.45 426.01 480.82 431.69 476.81 436.83 472.51 441.38 466.14 447.85 452.42 457.69 445.14 461.04 437.84 463.82 422.3 466.78 414.06 467.19 408.54 467.58 402.79 467.65 396.85 467.43 390.92 467.61 384.79 467.6 378.5 467.4 372.21 467.68 366.07 467.77 360.14 467.66 351.37 467.94 335.26 467.26 328.11 466 321.45 464.38 310.58 458.28 306.55 453.69 303.23 448.43 299.83 434.81 299.87 426.55 300.17 420.85 301.17 414.62 302.9 407.92 304.64 401.21 307.02 394.36 309.93 387.45 312.81 380.56 316.22 373.62 320.07 366.72 323.87 359.84 328.11 353.02 332.72 346.34 337.26 339.69 342.17 333.22 347.39 327.02 352.55 320.88 358.03 315.07 363.78 309.69 369.48 304.44 375.47 299.7 381.68 295.58 387.88 291.68 394.31 288.47 400.94 286.09 407.57 284 414.39 282.81 421.36 282.6" stroke-dasharray="1 9" transform="rotate(84, 400, 400)" opacity="0.86"></path></g></svg>