<svg xmlns="http://www.w3.org/2000/svg" version="1.1" xmlns:xlink="http://www.w3.org/1999/xlink" xmlns:svgjs="http://svgjs.dev/svgjs" viewBox="0 0 800 800" opacity="0.6"><defs><linearGradient x1="50%" y1="0%" x2="50%" y2="100%" id="ccchaos-grad"><stop stop-color="ccf0eb" stop-opacity="1" offset="0%"></stop><stop stop-color="016d5e" stop-opacity="1" offset="100%"></stop></linearGradient></defs><g stroke-width="1" stroke="url(#ccchaos-grad)" fill="none" stroke-linecap="round"><path d="M380.43 51.83C386.23 53.44 391.95 55.07 397.6 56.7 406.05 58.87 422.58 62.53 430.67 63.97 436.05 64.66 441.37 65.26 446.63 65.79 457.19 66.21 467.58 66.55 477.84 66.97 488.27 67.1 498.71 67.76 509.24 69.15 520.1 70.88 531.22 73.69 542.66 77.64 554.59 82.31 566.97 88.21 579.82 95.27 593.18 103.03 606.97 111.79 621.1 121.39 635.45 131.39 649.84 141.97 663.97 152.94 677.71 163.97 690.64 175.17 702.36 186.43 712.84 197.47 721.51 208.47 728.05 219.38 732.78 229.96 735.13 240.46 735.1 250.9 733.53 261.02 730.08 271.16 725.16 281.36 720.09 291.31 714.74 301.42 709.82 311.74 706.64 321.9 705.1 332.36 705.68 343.14 707.05 348.49 709.03 353.95 711.61 359.49 714.89 365.03 718.73 370.66 723.06 376.41 727.93 382.14 733.16 387.98 738.64 393.94 744.39 399.89 750.18 405.96 755.89 412.15 761.53 418.33 766.77 424.57 771.52 430.84 775.85 437.12 779.5 443.44 782.4 449.8 784.64 456.17 786.03 462.57 786.52 469 786.27 475.43 785.12 481.89 783.1 488.37 776.96 501.32 767.85 514.3 756.43 527.21 743.69 540.01 729.98 552.62 716.03 564.9 702.71 576.88 690.26 588.33 679.07 599.05 669.67 609.24 661.84 618.47 655.51 626.57 649.27 636.96 642.59 650.05 640.15 652.96 637.47 654.54 627.06 656.47 618.68 659.04 612.11 662.67 604.4 667.72 595.67 674.41 586.42 683.2 576.32 693.64 565.51 705.49 554.39 718.66 542.74 732.3 530.7 745.73 518.52 758.54 506.09 769.66 493.51 778.3 487.2 781.67 480.87 784.23 474.53 785.9 468.18 786.8 461.83 786.79 455.48 785.84 449.12 784.15 442.77 781.59 436.43 778.2 430.08 774.24 423.75 769.62 417.42 764.42 411.09 758.95 404.84 753.21 398.68 747.33 392.52 741.54 386.43 735.84 380.42 730.36 374.4 725.29 368.45 720.62 362.57 716.42 356.68 712.86 350.86 709.87 345.09 707.47 333.51 704.87 322.14 704.58 310.96 706.25 299.65 710.03 288.48 714.67 277.45 719.48 266.25 724.52 255.16 728.45 244.16 730.76 233.02 731.74 221.98 730.43 211.09 726.76 200.13 721.26 189.37 713.5 178.89 703.78 168.47 692.67 158.43 680.16 148.86 666.66 139.52 652.59 130.76 638.11 122.66 623.55 114.91 609.11 107.87 594.93 101.59 581.14 95.64 567.83 90.41 554.98 85.89 542.61 81.55 530.73 77.8 519.22 74.59 508 71.35 497.15 68.51 486.42 66.05 475.75 63.37 465.27 60.97 454.7 58.88 443.98 57.19 435.95 54.09 419.61 52.71 411.28 51.36 402.89 49.14 385.73 48.34 376.97 47.84 371.1 47.5 365.24 47.32 359.38 47.16 350.59 47.82 333.11 48.66 324.43 49.34 318.67 50.23 312.95 51.32 307.28 53.71 296 56.92 284.96 60.91 274.25 65.17 263.68 70.14 253.53 75.76 243.86 81.48 234.39 87.7 225.47 94.33 217.16 100.84 209.05 107.62 201.54 114.59 194.66 121.26 187.89 128.06 181.66 134.95 175.91 141.48 170.06 148.14 164.52 154.94 159.19 161.46 153.47 168.21 147.74 175.23 141.91 182.13 135.44 189.39 128.73 197.05 121.75 204.72 114.09 212.85 106.23 221.44 98.26 230.13 89.91 239.29 81.74 248.88 73.98 258.6 66.41 268.73 59.66 279.2 53.96 289.78 49.01 300.66 45.41 311.77 43.26 320.17 42.34 337.18 42.58 345.78 43.64 351.52 44.57 357.29 45.75 363.06 47.15 368.84 48.57 374.63 50.14 380.42 51.83" stroke-dasharray="2 4" transform="rotate(0, 400, 400)" opacity="1.00"></path><path d="M382.49 96.37C392.68 99.48 402.92 102.62 413.19 105.62 423.49 107.86 433.87 109.8 444.32 111.42 454.86 112.25 465.52 112.89 476.33 113.45 487.28 113.55 498.42 113.87 509.76 114.56 521.26 115.27 532.99 116.66 544.89 118.82 556.91 121.4 569.05 124.93 581.19 129.42 593.29 134.5 605.21 140.55 616.79 147.49 627.98 154.97 638.52 163.23 648.18 172.15 657.05 181.42 664.72 191.2 670.98 201.34 676.13 211.64 679.7 222.18 681.6 232.86 682.44 243.53 681.77 254.27 679.75 265.03 677.24 275.69 673.95 286.36 670.22 297.01 667.06 307.55 664.27 318.1 662.25 328.67 661.86 339.14 662.87 349.68 665.45 360.28 670.1 370.84 676.31 381.51 683.86 392.28 692.79 403.05 702.26 413.95 711.67 424.98 720.85 436.01 728.56 446.91 734.32 457.63 738.38 468.33 739.86 478.81 738.7 489.02 735.45 499.16 729.74 508.95 721.91 518.31 712.68 527.5 702.05 536.16 690.54 544.21 678.78 551.99 666.92 559.06 655.34 565.35 644.52 571.33 634.44 576.49 625.26 580.81 617.27 584.9 610.22 588.24 604.03 590.91 596.67 594.76 585.24 601.9 580.09 606.39 576.87 610.55 573.23 615.49 569.07 621.38 564.86 628.63 559.97 636.96 554.38 646.34 548.6 656.87 542.08 668.11 534.87 679.74 527.45 691.65 519.38 703.17 510.73 713.78 501.92 723.37 492.61 731.15 482.84 736.69 472.99 740.16 462.76 740.93 452.2 738.92 441.62 734.82 430.74 728.35 419.61 719.88 408.48 710.62 397.38 700.76 386.33 690.97 375.28 682.17 364.27 674.44 353.34 668.12 342.39 663.82 331.5 661.17 320.68 660.08 309.85 660.85 299.09 662.68 288.43 665.2 277.77 668.59 267.22 671.86 256.83 674.61 246.49 677.11 236.35 678.44 226.48 678.38 216.74 677.35 207.33 674.68 198.33 670.39 189.55 664.95 181.26 658.02 173.51 649.76 166.07 640.61 159.22 630.45 153.02 619.51 147.13 608.08 141.87 596.18 137.27 584.02 132.89 571.72 129.08 559.36 125.83 547.08 122.64 534.86 119.87 522.8 117.5 510.96 114.98 499.25 112.73 487.76 110.72 476.48 108.41 465.33 106.26 454.35 104.29 443.54 101.97 432.8 99.84 422.17 97.94 411.66 95.79 401.18 93.97 390.77 92.56 380.45 91.12 370.13 90.27 360.13 90.07 350.47 90.06 340.81 90.81 331.49 92.32 322.55 94.17 313.61 96.81 305.07 100.23 296.95 103.98 288.84 108.45 281.15 113.57 273.9 118.9 266.64 124.77 259.8 131.08 253.35 137.41 246.83 144.07 240.64 150.96 234.75 157.69 228.66 164.56 222.74 171.54 216.95 178.23 210.8 185 204.65 191.82 198.43 198.34 191.73 204.95 184.87 211.66 177.85 218.11 170.32 224.73 162.63 231.54 154.85 238.18 146.72 245.08 138.65 252.25 130.77 259.34 122.89 266.74 115.48 274.48 108.71 282.18 102.38 290.23 96.96 298.61 92.64 306.99 89.05 315.71 86.68 324.75 85.58 333.78 85.23 343.12 86.02 352.75 87.87 362.38 90.06 372.3 92.96 382.48 96.37" stroke-dasharray="6 2" transform="rotate(14, 400, 400)" opacity="0.86"></path><path d="M402.07 140.91C411.22 143.93 420.52 147.01 429.93 150.02 439.36 152.44 448.92 154.66 458.58 156.63 468.28 157.93 478.08 159.04 487.94 159.99 497.82 160.43 507.75 160.9 517.65 161.49 527.52 161.85 537.31 162.56 546.92 163.68 556.39 164.89 565.57 166.7 574.36 169.15 582.83 171.91 590.76 175.4 598.01 179.61 604.76 184.23 610.69 189.57 615.67 195.58 620.04 201.97 623.39 208.97 625.66 216.49 627.35 224.32 628.03 232.58 627.76 241.19 627.16 250 625.87 259.08 624.05 268.35 622.42 277.73 620.67 287.24 619.03 296.83 618.2 306.46 617.92 316.14 618.39 325.81 620.14 335.51 622.89 345.18 626.66 354.81 631.78 364.44 637.8 374.02 644.54 383.51 652.1 393.01 659.87 402.42 667.45 411.69 674.87 420.96 681.24 429.87 686.24 438.38 690.19 446.88 692.35 454.97 692.66 462.61 691.54 470.21 688.56 477.34 683.87 483.98 677.97 490.56 670.69 496.64 662.32 502.21 653.32 507.73 643.68 512.76 633.68 517.33 623.71 521.93 613.77 526.14 604.04 530.04 594.8 534.12 585.97 538.03 577.62 541.87 569.95 546.13 562.77 550.51 556.04 555.14 549.95 560.43 544.18 566.15 538.66 572.39 533.59 579.44 528.6 587.08 523.59 595.32 518.84 604.29 513.92 613.73 508.76 623.5 503.7 633.61 498.3 643.69 492.52 653.46 486.74 662.9 480.54 671.53 473.9 679.02 467.23 685.44 460.12 690.27 452.57 693.27 444.98 694.76 436.97 694.26 428.57 691.76 420.14 687.9 411.33 682.34 402.17 675.35 393.01 667.79 383.74 659.68 374.39 651.44 365.06 643.73 355.68 636.52 346.3 630.08 336.95 624.9 327.61 620.76 318.34 617.67 309.13 615.98 300.01 615.2 291.02 615.17 282.14 616.15 273.43 617.47 264.96 618.89 256.63 620.71 248.59 622.18 240.88 623.12 233.36 623.88 226.23 623.79 219.53 622.75 213.06 621.19 207.05 618.56 201.55 614.9 196.28 610.6 191.5 605.31 187.25 599.13 183.16 592.41 179.55 584.92 176.41 576.81 173.33 568.32 170.63 559.36 168.3 550.05 165.89 540.53 163.73 530.79 161.81 520.93 159.66 510.98 157.65 500.99 155.77 491.03 153.57 481.05 151.45 471.14 149.43 461.34 147.08 451.55 144.85 441.89 142.79 432.38 140.5 422.88 138.47 413.53 136.78 404.36 135.06 395.19 133.85 386.39 133.2 377.97 132.72 369.53 132.9 361.45 133.77 353.72 134.94 345.95 136.84 338.51 139.45 331.37 142.4 324.17 146.03 317.23 150.29 310.55 154.83 303.74 159.94 297.13 165.53 290.68 171.27 284.04 177.4 277.49 183.86 271.01 190.31 264.26 197 257.5 203.87 250.71 210.62 243.61 217.49 236.44 224.45 229.19 231.21 221.64 238.05 214.04 244.94 206.41 251.62 198.58 258.38 190.82 265.21 183.21 271.85 175.61 278.61 168.32 285.51 161.46 292.24 154.87 299.16 148.9 306.26 143.68 313.26 138.97 320.48 135.15 327.95 132.32 335.34 130.12 343.01 128.93 350.95 128.77 358.86 129.14 367.06 130.4 375.58 132.49 384.07 134.79 392.9 137.63 402.06 140.9" stroke-dasharray="4 5" transform="rotate(28, 400, 400)" opacity="0.73"></path><path d="M419.57 185.44C427.52 188.27 435.45 191.17 443.36 194.07 451.26 196.56 459.12 198.93 466.89 201.17 474.65 202.9 482.31 204.48 489.81 205.93 497.26 206.92 504.51 207.85 511.51 208.77 518.4 209.38 524.97 210.09 531.17 210.98 539.97 212.24 554.76 216.46 560.53 219.66 565.27 223.56 571.21 234.18 572.52 240.86 573.15 248.33 572.69 265.62 572.18 275.24 572.24 281.9 572.47 288.82 572.97 295.93 574.18 303.14 575.85 310.5 578.04 317.97 581.09 325.5 584.73 333.09 588.92 340.7 593.9 348.35 599.31 355.99 605.02 363.58 611.17 371.18 617.31 378.72 623.23 386.16 629.04 393.6 634.1 400.75 638.25 407.6 641.79 414.44 644.15 421 645.29 427.25 645.55 433.51 644.53 439.49 642.25 445.2 639.12 450.95 634.86 456.46 629.6 461.77 623.71 467.16 617.04 472.41 609.75 477.55 602.15 482.86 594.16 488.15 585.93 493.45 577.69 499.03 569.39 504.71 561.14 510.56 553.09 516.76 545.18 523.19 537.46 529.88 530.04 536.97 522.82 544.34 515.82 551.97 509.12 559.95 502.59 568.12 496.2 576.41 490.07 584.87 484.01 593.28 477.99 601.5 472.14 609.58 466.26 617.22 460.32 624.24 454.49 630.74 448.53 636.36 442.42 640.92 436.36 644.62 430.12 647.08 423.68 648.2 417.26 648.31 410.62 647.06 403.76 644.45 396.91 641.01 389.83 636.42 382.56 630.81 375.28 624.84 367.97 618.38 360.68 611.7 353.4 605.26 346.14 598.96 338.95 592.97 331.79 587.69 324.72 582.93 317.78 578.76 310.9 575.48 304.17 572.79 297.63 570.67 291.18 569.36 284.96 568.47 279 567.88 270.37 567.88 254.82 568.21 248 567.89 241.7 567.12 231.01 562.61 226.58 558.66 222.47 553.71 215.54 540.42 212.56 532.27 210.46 526.48 208.5 520.27 206.65 513.7 204.56 507 202.53 500 200.58 492.78 198.33 485.48 196.14 478 194.03 470.39 191.64 462.75 189.36 455.02 187.23 447.22 184.91 439.42 182.82 431.57 181.01 423.71 179.16 415.84 177.74 408.14 176.78 400.62 175.94 393.08 175.65 385.69 175.92 378.46 176.42 371.2 177.52 364.06 179.22 357.04 181.2 349.96 183.77 342.96 186.92 336.04 190.33 329.02 194.27 322.04 198.7 315.09 203.33 308.02 208.4 300.95 213.83 293.88 219.39 286.68 225.26 279.48 231.39 272.28 237.56 264.98 243.93 257.7 250.47 250.49 256.97 243.23 263.61 236.08 270.34 229.12 276.99 222.22 283.74 215.59 290.55 209.3 297.26 203.22 304.05 197.58 310.91 192.48 317.67 187.73 324.52 183.61 331.46 180.19 338.32 177.21 345.3 174.99 352.38 173.56 359.41 172.58 366.58 172.38 373.9 172.93 381.18 173.82 388.63 175.36 396.24 177.51 403.83 179.76 411.61 182.43 419.56 185.44" stroke-dasharray="8 7" transform="rotate(42, 400, 400)" opacity="0.59"></path><path d="M417.48 229.98C423.81 232.48 429.97 235.09 435.94 237.74 441.9 240.12 447.67 242.5 453.21 244.82 464.22 248.45 474.23 251.83 483.05 255.01 491.61 257.01 498.82 259.22 504.56 261.83 512.05 265.45 520.69 277.79 523.28 287.07 525.88 293.93 528.79 301.99 532.37 311.05 537.82 320.32 544.35 330.45 551.84 341.21 556.19 346.62 560.68 352.16 565.22 357.81 569.96 363.47 574.6 369.23 579.01 375.08 583.35 380.93 587.18 386.73 590.42 392.46 593.35 398.2 595.54 403.9 596.98 409.53 598.41 420.88 596.53 432.15 591.6 443.39 584.84 454.96 575.62 466.77 564.6 478.85 552.76 491.48 539.93 504.52 526.66 517.82 513.46 531.48 500.25 545.08 487.28 558.09 474.69 570.57 462.32 581.59 450.24 590.4 438.44 597.39 426.72 601.31 415.09 601.71 409.31 601.03 403.53 599.48 397.75 597.07 391.97 594.19 386.18 590.57 380.39 586.27 374.6 581.75 368.94 576.85 363.42 571.7 357.9 566.62 352.53 561.49 347.33 556.41 336.93 547.28 327.22 539.01 318.35 531.91 309.55 526.81 301.63 522.66 294.69 519.17 287.78 517.01 281.8 514.71 276.74 511.88 271.49 509.41 266.96 505.8 263.08 500.88 258.64 495.8 254.58 489.24 250.85 481.29 246.28 473.12 241.9 463.65 237.82 453.07 235.5 447.75 233.29 442.17 231.21 436.36 229.01 430.55 227.01 424.51 225.23 418.27 223.43 412.03 221.96 405.73 220.85 399.41 219.81 393.08 219.19 386.73 218.98 380.35 219.03 367.59 220.95 354.73 224.65 341.89 229.16 329 235.39 316.12 243.09 303.43 251.42 290.81 260.95 278.53 271.4 266.93 282.14 255.75 293.56 245.6 305.41 236.9 317.31 229.13 329.54 223.2 341.94 219.41 354.32 216.81 366.87 216.38 379.49 218.14 385.8 219.29 392.13 220.9 398.46 222.92 404.8 224.97 411.14 227.34 417.47 229.98" stroke-dasharray="5 6" transform="rotate(56, 400, 400)" opacity="0.46"></path><path d="M397.9 274.52C406.96 278.54 415.33 282.91 422.92 287.41 430.48 291.2 437.26 295.02 443.22 298.8 451.76 303.4 465.4 312.5 470.96 317.59 474.92 320.84 478.71 324.73 482.45 329.3 486.93 333.77 491.63 339.01 496.6 345.02 502.48 351 508.67 357.77 514.98 365.29 521.93 372.8 528.66 381.06 534.78 390.04 540.77 399.02 545.28 408.31 548.12 417.83 550.14 427.38 550.25 437.2 548.5 447.18 545.79 457.23 541.36 467.46 535.46 477.69 528.87 487.92 521.12 498.06 512.55 507.83 503.66 517.35 494.21 526.23 484.48 534.1 474.7 541.29 464.77 547.09 454.9 551.18 445.07 554.17 435.32 555.2 425.76 554.11 416.25 551.91 406.91 547.74 397.84 541.74 388.78 535.25 380.37 527.85 372.66 519.99 364.9 512.57 357.8 505.18 351.37 498.07 344.86 491.86 338.96 486 333.68 480.5 328.23 475.85 323.3 471.33 318.88 466.81 314.15 462.82 309.79 458.54 305.78 453.82 301.33 449.32 297.12 444.17 293.16 438.31 288.71 432.5 284.49 425.88 280.62 418.45 276.36 411.01 272.57 402.75 269.45 393.73 266.26 384.7 264.13 375.36 263.1 365.87 262.36 356.42 262.87 346.87 264.6 337.42 266.78 328.08 270.19 318.94 274.71 310.19 279.67 301.7 285.63 293.77 292.43 286.64 299.55 279.96 307.37 274.26 315.69 269.75 324.21 265.84 333.12 263.25 342.24 262.08 351.46 261.49 360.82 262.26 370.15 264.38 379.53 266.75 388.83 270.18 397.9 274.52" stroke-dasharray="0 8" transform="rotate(70, 400, 400)" opacity="0.32"></path><path d="M380.41 319.05C391.99 324.74 402.52 331.66 411.78 339.1 421.27 345.25 429.98 352.09 437.97 359.56 446.85 366.18 455.69 374.06 464.23 383.28 473.9 392.24 483.07 402.97 490.57 415.4 497.84 427.83 501.48 440.87 501.41 453.69 499.99 466.34 494.88 478.33 486.91 488.5 478.06 497.72 467.11 504.2 455.1 506.86 442.91 507.8 430.11 504.61 417.45 497.2 404.79 488.98 393.4 478.62 383.44 467.53 373.23 457.4 364.08 447.05 356.08 436.88 347.42 427.71 339.51 418.11 332.65 408.04 325 398.27 318.43 387.44 313.67 375.74 308.78 364.03 306.77 352.56 307.52 342.09 308.89 331.9 313.16 323.18 319.78 316.75 327.01 311.08 336.23 308.1 346.66 308.3 357.33 309.12 368.83 312.75 380.41 319.05" stroke-dasharray="2 9" transform="rotate(84, 400, 400)" opacity="0.19"></path></g></svg>