<svg id="visual" viewBox="0 0 900 600" width="900" height="600" xmlns="http://www.w3.org/2000/svg" xmlns:xlink="http://www.w3.org/1999/xlink" version="1.1"><g><g transform="translate(292 113)"><path d="M103.2 -29.8C114.9 2.5 92.6 49.7 58 73.2C23.4 96.8 -23.5 96.8 -55.3 74.1C-87.2 51.4 -104.1 6.1 -92.4 -26.3C-80.7 -58.6 -40.3 -77.8 2.7 -78.7C45.7 -79.6 91.5 -62.1 103.2 -29.8Z" fill="#ccf0eb"></path></g><g transform="translate(786 589)"><path d="M73.6 -21.6C83.7 7.2 72.1 45.3 45.7 65.1C19.2 84.8 -22.2 86.2 -45.5 68C-68.7 49.9 -73.7 12.1 -63.1 -17.3C-52.5 -46.8 -26.2 -67.9 2.7 -68.8C31.7 -69.7 63.5 -50.3 73.6 -21.6Z" fill="#ccf0eb"></path></g><g transform="translate(548 264)"><path d="M64.9 -22.9C72.7 3.1 59.9 34 37.3 50.2C14.6 66.5 -18 68 -40.3 52.5C-62.5 37 -74.6 4.4 -66.2 -22.4C-57.7 -49.2 -28.9 -70.3 -0.2 -70.2C28.5 -70.1 57 -49 64.9 -22.9Z" fill="#ccf0eb"></path></g><g transform="translate(768 21)"><path d="M89.2 -28.9C99.7 3.3 81.4 45 52.9 63.5C24.4 82 -14.1 77.2 -42.2 57.1C-70.4 36.9 -88.1 1.3 -79.3 -28.6C-70.5 -58.5 -35.2 -82.6 2.1 -83.3C39.4 -84 78.7 -61.2 89.2 -28.9Z" fill="#ccf0eb"></path></g><g transform="translate(175 567)"><path d="M57.1 -18.3C65.7 8.1 58.8 39.8 39.8 53.3C20.7 66.9 -10.6 62.3 -29.6 47C-48.7 31.7 -55.4 5.7 -48.5 -18.4C-41.5 -42.5 -20.7 -64.7 1.7 -65.3C24.2 -65.9 48.4 -44.7 57.1 -18.3Z" fill="#ccf0eb"></path></g></g></svg>